<svg xmlns="http://www.w3.org/2000/svg" xmlns:xlink="http://www.w3.org/1999/xlink" width="500px" height="500px" viewBox="0 0 500 500">
    <g id="7e3aa5d8-7718-46ba-9507-ef1853ed675f">
<rect style="stroke: rgb(193,193,193); stroke-width: 0; stroke-dasharray: none; stroke-linecap: butt; stroke-dashoffset: 0; stroke-linejoin: miter; stroke-miterlimit: 4; fill: rgb(255,255,255); fill-rule: nonzero; opacity: 1;" x="-250" y="-250" rx="0" ry="0" width="500" height="500" transform="matrix(1 0 0 1 250 250)"/>
</g>
<g id="4a730fcc-fcba-4a3a-b14f-f260a813cc25">
<g style="">
		<g id="d8fa1803-94fd-43b2-bb2e-64e0eadddbbd">
<path style="stroke: rgb(193,193,193); stroke-width: 0; stroke-dasharray: none; stroke-linecap: butt; stroke-dashoffset: 0; stroke-linejoin: miter; stroke-miterlimit: 4; fill: rgb(0,0,0); fill-rule: nonzero; opacity: 1;" transform="matrix(0.605374 0 0 0.606144 250.36711 248.628954) matrix(1 0 0 1 0 0)  translate(-394.588674, -395.739354)" d="M 355.00 787.47 C 276.39 779.48 206.80 750.46 143.50 699.29 C 136.95 693.99 122.02 680.05 112.70 670.53 C 90.76 648.11 73.27 625.61 57.36 599.34 C 28.65 551.92 11.54 502.89 3.78 445.80 C 0.76 423.55 0.49 369.04 3.30 348.00 C 13.10 274.71 39.45 211.12 83.43 154.60 C 158.67 57.90 271.17 2.77 393.50 2.64 C 442.41 2.59 484.59 9.89 529.50 26.16 C 545.33 31.90 546.62 32.46 568.00 42.75 C 620.31 67.92 669.96 108.49 706.62 156.00 C 728.88 184.86 748.79 219.84 760.68 251.00 C 780.81 303.72 789.13 352.15 787.67 408.00 C 786.01 471.26 769.75 530.66 738.83 586.44 C 727.94 606.08 710.78 631.08 696.97 647.42 C 688.43 657.50 684.55 661.75 674.14 672.36 C 643.43 703.66 610.86 727.51 572.45 746.81 C 554.71 755.72 546.98 759.16 533.00 764.39 C 501.37 776.22 465.94 784.34 432.00 787.53 C 413.23 789.30 372.66 789.27 355.00 787.47 M 438.35 749.57 C 498.41 741.04 543.98 724.20 591.00 693.13 C 622.63 672.23 650.55 646.46 675.09 615.50 C 680.13 609.14 691.03 594.00 693.50 589.91 C 694.05 589.00 697.35 583.59 700.84 577.88 C 711.98 559.62 725.36 530.76 732.29 510.00 C 750.31 456.03 755.25 399.76 746.95 343.11 C 734.41 257.51 691.01 180.19 623.24 122.71 C 598.85 102.02 564.75 80.93 535.81 68.63 C 508.45 57.01 476.44 48.04 445.50 43.33 C 428.75 40.78 425.24 40.59 395.00 40.55 C 361.97 40.50 359.53 40.68 332.50 45.14 C 320.13 47.18 290.71 54.45 281.00 57.87 C 248.97 69.13 223.05 81.93 197.00 99.34 C 180.80 110.16 175.32 114.36 160.12 127.64 C 92.38 186.79 50.92 265.68 39.84 356.50 C 38.09 370.86 38.07 419.81 39.81 434.00 C 45.68 481.84 56.97 518.98 78.08 559.85 C 106.28 614.44 147.66 660.16 199.80 694.36 C 246.65 725.09 299.94 744.17 355.00 749.93 C 360.77 750.54 367.07 751.21 369.00 751.42 C 377.55 752.37 428.09 751.02 438.35 749.57 M 362.50 739.92 C 316.36 736.21 264.31 719.59 221.23 694.83 C 179.45 670.80 141.84 636.46 112.20 595.27 C 109.34 591.29 107.00 587.77 107.00 587.45 C 107.00 587.13 105.93 585.43 104.62 583.68 C 101.59 579.64 94.28 567.42 89.84 558.99 C 87.96 555.41 85.99 551.81 85.48 550.99 C 83.60 547.98 75.78 530.22 72.06 520.50 C 56.31 479.38 49.02 439.97 49.02 396.00 C 49.02 352.24 55.81 315.17 71.63 272.66 C 103.30 187.51 170.92 117.03 257.89 78.50 C 278.95 69.17 312.68 59.15 335.00 55.61 C 362.69 51.20 368.49 50.73 395.00 50.75 C 418.41 50.76 423.66 51.07 440.00 53.44 C 461.63 56.57 494.34 64.06 503.50 67.98 C 504.60 68.46 507.52 69.53 510.00 70.36 C 525.13 75.48 552.63 88.04 565.24 95.59 C 594.78 113.27 613.35 127.44 635.84 149.44 C 651.12 164.40 673.76 190.94 677.84 198.67 C 678.47 199.87 679.58 201.44 680.30 202.17 C 682.76 204.65 695.88 227.05 702.50 240.08 C 711.31 257.39 717.95 273.08 722.83 288.11 C 748.20 366.20 745.59 449.18 715.41 523.71 C 688.43 590.33 642.52 646.04 582.08 685.53 C 568.62 694.32 565.55 696.05 547.50 705.06 C 508.76 724.39 466.55 736.27 423.50 739.95 C 409.80 741.13 377.30 741.11 362.50 739.92 M 424.70 728.93 C 438.88 727.74 462.18 723.99 474.50 720.91 C 484.87 718.32 507.46 711.17 510.86 709.39 C 512.31 708.63 513.97 708.01 514.54 708.01 C 516.20 708.00 537.93 698.57 544.50 695.01 C 561.78 685.64 577.57 676.14 586.57 669.70 C 599.80 660.23 607.06 654.39 606.40 653.73 C 606.10 653.44 604.22 653.65 602.20 654.21 C 600.18 654.77 594.69 655.04 590.00 654.81 C 576.60 654.17 566.64 648.66 559.18 637.73 C 555.07 631.72 553.71 626.76 554.21 619.65 C 555.32 603.95 568.29 591.45 582.68 592.20 C 587.95 592.47 588.54 592.74 589.41 595.22 C 590.75 599.04 588.20 601.58 582.21 602.38 C 576.38 603.16 572.09 605.70 568.37 610.59 C 565.82 613.92 565.50 615.16 565.50 621.58 C 565.50 628.17 565.77 629.15 568.60 632.66 C 572.54 637.55 578.39 641.65 583.50 643.10 C 604.16 648.94 621.38 635.16 625.23 609.70 C 626.53 601.12 625.26 594.33 620.53 584.50 C 616.63 576.38 608.83 568.36 600.45 563.83 C 589.04 557.66 572.09 555.48 559.22 558.51 C 550.71 560.52 546.39 562.85 533.50 572.43 C 512.07 588.36 499.19 595.89 480.14 603.66 C 452.93 614.74 427.48 620.00 398.84 620.45 C 361.31 621.04 325.63 612.83 291.50 595.76 C 283.85 591.93 262.70 578.54 259.85 575.72 C 255.96 571.86 238.27 560.85 233.73 559.46 C 220.77 555.47 201.81 557.05 189.80 563.11 C 186.66 564.69 181.16 568.72 177.59 572.07 C 163.27 585.46 159.56 603.62 167.12 623.35 C 172.68 637.90 187.22 646.75 200.90 643.92 C 215.07 641.00 224.00 632.13 224.00 620.99 C 224.00 611.08 214.66 602.03 204.40 602.01 C 203.25 602.00 201.48 601.09 200.47 599.97 C 199.02 598.36 198.83 597.37 199.59 595.22 C 200.46 592.73 201.04 592.47 206.40 592.20 C 213.98 591.80 221.17 595.17 227.29 601.98 C 241.25 617.50 234.97 640.97 214.13 651.24 C 207.69 654.40 207.13 654.50 194.93 654.47 L 182.36 654.44 L 187.43 658.55 C 216.03 681.72 253.21 701.71 291.19 714.33 C 310.17 720.64 340.00 726.69 365.00 729.31 C 373.19 730.17 412.91 729.91 424.70 728.93 M 156.03 624.86 C 148.90 603.22 152.87 582.76 167.15 567.50 C 175.50 558.57 183.52 553.56 195.50 549.80 C 203.86 547.17 207.18 546.64 215.75 546.58 C 221.93 546.53 226.00 546.10 226.00 545.49 C 226.00 544.93 224.99 543.36 223.75 541.98 C 209.17 525.79 195.13 502.76 185.93 479.94 C 174.60 451.83 169.73 425.94 169.81 394.25 C 169.84 384.76 169.51 377.00 169.08 377.00 C 168.66 377.00 167.55 377.84 166.62 378.87 C 163.74 382.05 152.86 386.95 145.00 388.60 C 126.42 392.50 103.16 385.56 88.34 371.70 C 80.15 364.04 72.66 352.22 69.13 341.38 C 67.34 335.89 66.08 333.34 65.69 334.37 C 65.34 335.27 64.05 342.87 62.82 351.25 C 60.92 364.19 60.57 370.81 60.54 395.00 C 60.50 429.52 62.30 445.48 69.66 476.00 C 81.02 523.10 102.39 566.14 134.35 606.29 C 142.51 616.53 157.03 632.30 157.69 631.64 C 157.93 631.41 157.18 628.35 156.03 624.86 M 636.08 627.25 C 646.58 616.22 661.64 597.78 670.16 585.50 C 698.70 544.36 717.80 495.81 725.69 444.30 C 728.21 427.85 728.42 424.19 728.42 396.00 C 728.42 369.52 728.13 363.56 726.19 350.78 C 724.96 342.68 723.68 335.33 723.34 334.44 C 722.93 333.38 721.94 335.21 720.53 339.66 C 711.75 367.10 691.79 384.15 662.69 389.07 C 650.62 391.12 634.62 387.50 624.95 380.56 C 622.22 378.60 619.82 377.00 619.61 377.00 C 619.40 377.00 619.01 387.46 618.73 400.25 C 618.12 428.69 615.55 444.22 607.64 467.50 C 599.10 492.65 586.59 515.29 569.06 537.35 C 565.64 541.65 563.11 545.44 563.43 545.77 C 563.76 546.09 568.18 546.45 573.26 546.57 C 587.89 546.89 600.02 550.54 610.83 557.89 C 622.26 565.64 631.20 578.00 634.47 590.54 C 637.39 601.74 636.03 619.23 631.58 627.84 C 628.54 633.71 630.11 633.51 636.08 627.25 M 415.79 608.95 C 460.39 604.11 502.01 585.99 534.82 557.13 C 574.38 522.34 598.41 478.44 606.62 426.00 C 610.24 402.89 608.52 370.56 602.32 345.00 C 591.66 301.06 565.54 259.21 531.50 231.55 C 522.97 224.62 505.50 212.00 504.43 212.00 C 504.15 212.00 500.26 209.92 495.78 207.37 C 473.82 194.92 446.00 186.27 417.23 182.96 C 402.39 181.26 372.40 182.19 358.00 184.81 C 290.15 197.13 235.58 237.57 202.84 299.79 C 198.49 308.08 191.45 326.31 188.09 338.00 C 176.95 376.83 177.62 419.39 189.99 459.50 C 205.04 508.30 237.51 550.21 281.62 577.78 C 309.51 595.20 342.96 606.32 376.50 609.31 C 385.65 610.12 406.74 609.93 415.79 608.95 M 146.31 376.91 C 154.76 374.39 159.24 371.69 164.37 366.01 C 170.46 359.27 173.32 351.98 173.79 342.00 C 174.29 331.37 172.00 324.53 165.63 317.70 C 160.06 311.71 153.60 308.80 145.90 308.80 C 133.08 308.80 123.72 317.47 120.54 332.28 C 119.68 336.29 115.88 337.81 112.42 335.54 C 109.99 333.95 109.81 333.40 110.38 329.23 C 111.95 317.78 120.61 306.26 131.27 301.44 C 147.54 294.09 166.23 299.55 176.81 314.76 C 179.20 318.20 181.51 320.80 181.94 320.54 C 182.36 320.28 183.73 317.24 184.98 313.78 C 187.63 306.48 196.42 288.40 200.31 282.27 C 201.79 279.94 203.00 277.81 203.00 277.52 C 203.00 276.11 219.00 255.06 226.32 246.86 C 270.97 196.81 334.76 169.14 400.53 171.29 C 434.67 172.40 460.90 178.86 492.50 193.93 C 541.37 217.22 580.47 258.50 601.98 309.50 C 604.30 315.00 606.53 319.85 606.93 320.29 C 607.34 320.72 609.29 318.64 611.26 315.66 C 624.80 295.27 652.56 292.06 668.45 309.05 C 673.75 314.71 677.53 322.27 678.53 329.16 C 679.15 333.45 678.99 333.96 676.56 335.55 C 672.64 338.12 669.41 336.32 668.02 330.79 C 664.45 316.52 655.82 309.00 643.00 309.00 C 631.63 309.00 621.18 316.59 616.92 327.92 C 613.92 335.94 614.50 348.30 618.26 356.04 C 623.85 367.55 631.13 373.49 644.18 377.19 C 666.33 383.45 694.60 369.82 705.73 347.50 C 714.05 330.82 716.08 308.54 711.08 288.90 C 707.22 273.77 692.65 242.16 680.31 222.13 C 664.76 196.88 652.30 181.18 630.56 159.44 C 611.49 140.36 589.19 122.32 572.36 112.36 C 535.32 90.43 510.31 79.87 473.50 70.63 C 446.38 63.81 413.47 60.38 384.50 61.34 C 324.32 63.34 269.65 79.78 218.50 111.27 C 180.93 134.39 146.50 166.64 121.10 202.50 C 100.84 231.11 82.38 268.40 77.28 291.00 C 74.77 302.14 75.04 323.06 77.84 333.35 C 86.64 365.75 117.61 385.45 146.31 376.91 M 390.65 695.73 C 390.33 694.47 390.02 684.01 389.95 672.48 L 389.83 651.50 L 393.92 651.19 L 398.00 650.89 L 398.00 655.80 C 398.00 665.10 399.08 670.00 401.14 670.00 C 402.82 670.00 403.00 669.10 403.00 660.50 L 403.00 651.00 L 406.92 651.00 C 411.90 651.00 411.81 650.59 412.20 677.00 L 412.50 697.50 L 408.29 697.81 L 404.08 698.11 L 403.79 688.81 C 403.52 680.02 403.37 679.48 401.25 679.18 C 399.05 678.87 399.00 679.08 399.00 688.43 L 399.00 698.00 L 395.11 698.00 C 391.89 698.00 391.12 697.60 390.65 695.73 M 352.23 694.77 C 350.98 694.17 349.66 692.51 349.31 691.09 C 348.39 687.47 351.98 655.09 353.67 651.75 C 354.97 649.15 355.43 649.00 361.89 649.00 C 371.43 649.00 374.00 651.03 374.00 658.57 C 374.00 663.90 373.95 664.00 371.08 664.00 C 366.64 664.00 365.00 663.02 365.00 660.39 C 365.00 658.70 364.44 658.00 363.08 658.00 C 360.86 658.00 360.47 659.39 359.02 672.50 C 357.56 685.62 357.65 687.00 359.94 687.00 C 362.54 687.00 364.14 678.22 361.79 676.90 C 360.69 676.29 360.47 675.08 360.92 672.29 L 361.54 668.50 L 366.52 668.85 C 369.26 669.05 371.79 669.39 372.15 669.60 C 372.84 670.02 372.54 673.74 370.89 685.47 C 369.59 694.71 368.31 696.02 360.60 695.93 C 357.24 695.90 353.48 695.37 352.23 694.77 M 433.11 695.07 C 431.94 694.35 425.66 651.33 426.43 649.33 C 426.81 648.33 428.16 647.98 430.72 648.19 L 434.45 648.50 L 437.65 670.96 C 439.41 683.32 440.67 693.73 440.44 694.10 C 439.86 695.03 434.25 695.77 433.11 695.07 M 134.34 591.31 C 122.50 575.90 111.87 558.77 102.48 540.00 C 79.89 494.81 68.90 447.92 68.83 396.50 C 68.79 373.56 69.57 364.41 71.27 367.61 C 71.82 368.65 74.01 371.79 76.14 374.59 L 80.00 379.68 L 80.01 391.59 C 80.05 418.59 83.36 447.27 89.09 470.23 C 96.20 498.69 103.16 516.34 120.52 549.87 C 121.48 551.72 126.96 560.27 132.70 568.87 L 143.14 584.50 L 142.46 590.50 C 141.39 599.95 141.01 599.98 134.34 591.31 M 142.15 567.22 C 114.78 526.92 97.49 481.40 91.49 433.86 C 89.80 420.42 88.28 387.00 89.36 387.00 C 89.73 387.00 92.50 388.39 95.52 390.10 L 101.00 393.19 L 101.00 403.64 C 101.00 451.87 118.53 509.44 146.01 551.50 C 153.64 563.18 153.58 562.93 150.34 568.26 C 148.78 570.83 147.18 572.95 146.79 572.97 C 146.40 572.99 144.31 570.40 142.15 567.22 M 153.98 547.48 C 147.35 537.64 135.17 514.12 130.19 501.50 C 118.10 470.90 111.65 441.40 110.32 410.63 C 109.70 396.31 109.75 395.78 111.59 396.33 C 112.64 396.64 115.19 397.19 117.25 397.56 C 119.79 398.01 121.00 398.75 121.00 399.86 C 121.01 404.59 123.19 429.38 124.09 435.00 C 130.80 476.80 143.73 510.49 166.96 546.62 C 168.20 548.55 168.01 549.02 164.91 551.84 C 163.03 553.55 160.95 554.95 160.28 554.97 C 159.61 554.99 156.78 551.61 153.98 547.48 M 176.21 543.12 C 175.67 542.78 172.53 538.21 169.23 532.96 C 152.35 506.13 139.42 471.86 134.09 439.83 C 131.64 425.16 129.60 400.99 130.71 399.92 C 131.15 399.50 133.75 399.02 136.50 398.86 L 141.50 398.56 L 142.21 406.53 C 142.60 410.91 143.40 419.57 143.98 425.77 C 147.20 459.95 162.02 501.66 181.11 530.24 L 186.96 539.01 L 182.07 541.37 C 179.38 542.67 176.74 543.45 176.21 543.12 M 193.80 532.85 C 188.75 526.55 180.74 512.81 174.56 499.81 C 160.32 469.91 152.24 437.63 151.72 408.55 L 151.50 396.60 L 156.38 394.77 C 159.07 393.76 161.47 393.14 161.73 393.39 C 161.98 393.64 162.60 400.52 163.11 408.67 C 164.60 432.62 168.03 450.16 175.50 472.08 C 180.45 486.61 192.92 511.21 201.65 523.68 C 205.69 529.46 209.00 534.59 209.00 535.09 C 209.00 535.59 207.71 536.00 206.12 536.00 C 204.54 536.00 201.91 536.27 200.27 536.60 C 197.65 537.12 196.87 536.67 193.80 532.85 M 648.66 597.35 C 648.36 596.33 647.82 592.93 647.45 589.79 L 646.78 584.07 L 654.72 572.29 C 666.24 555.19 672.35 544.67 679.44 529.73 C 700.05 486.36 709.99 441.64 710.00 392.24 L 710.00 378.97 L 714.50 373.45 C 716.98 370.41 719.05 367.38 719.12 366.71 C 719.18 366.04 719.58 366.85 720.00 368.50 C 721.44 374.14 721.08 417.82 719.49 431.44 C 712.81 488.50 691.47 542.85 658.19 587.50 C 648.88 599.99 649.30 599.56 648.66 597.35 M 639.75 568.41 C 638.24 565.91 637.00 563.43 637.00 562.88 C 637.00 562.34 638.73 559.33 640.84 556.20 C 669.81 513.22 686.66 461.10 688.88 407.59 L 689.50 392.69 L 694.50 389.91 C 697.25 388.38 699.84 387.10 700.25 387.07 C 702.17 386.90 700.47 420.07 697.52 440.50 C 692.44 475.65 679.20 514.12 661.73 544.50 C 655.97 554.52 643.90 573.01 643.14 572.97 C 642.79 572.95 641.26 570.90 639.75 568.41 M 625.25 552.14 C 623.46 550.61 622.00 548.88 622.00 548.31 C 622.00 547.73 624.00 544.29 626.44 540.65 C 640.66 519.44 653.65 488.98 660.82 460.00 C 664.29 446.00 667.98 422.36 668.00 414.00 C 668.01 410.98 668.30 406.18 668.64 403.34 C 669.24 398.34 669.38 398.15 672.88 397.53 C 674.87 397.18 677.36 396.64 678.41 396.33 C 680.25 395.78 680.30 396.31 679.67 410.63 C 677.79 453.96 663.94 500.64 642.18 537.00 C 634.68 549.53 630.86 555.00 629.65 554.96 C 629.02 554.94 627.04 553.67 625.25 552.14 M 609.48 542.13 C 602.61 539.34 602.62 539.70 609.11 529.40 C 632.25 492.68 644.79 453.74 647.58 410.00 C 647.95 404.23 648.43 399.30 648.66 399.05 C 649.27 398.38 658.40 399.05 659.16 399.83 C 660.06 400.74 658.38 423.45 656.48 436.16 C 654.79 447.38 650.32 466.13 646.94 476.17 C 639.73 497.60 627.81 522.68 617.99 537.13 L 613.49 543.75 L 609.48 542.13 M 585.25 536.27 C 582.91 536.06 581.00 535.46 581.00 534.94 C 581.00 534.42 583.86 529.84 587.35 524.75 C 595.95 512.24 601.13 503.11 606.91 490.28 C 619.25 462.91 626.99 429.41 627.00 403.31 C 627.00 398.25 627.38 393.88 627.84 393.60 C 628.31 393.31 630.90 393.92 633.59 394.95 L 638.50 396.83 L 638.30 407.44 C 637.71 439.21 628.19 475.13 612.16 506.00 C 602.36 524.89 594.03 537.13 591.17 536.83 C 590.25 536.73 587.59 536.48 585.25 536.27 M 296.76 543.53 C 288.90 540.27 282.60 534.84 279.55 528.72 C 274.64 518.87 276.52 512.72 288.35 500.00 C 290.65 497.52 297.88 489.65 304.41 482.50 C 310.95 475.35 319.06 466.57 322.44 463.00 C 325.82 459.43 333.73 450.88 340.02 444.00 C 346.30 437.12 354.71 428.07 358.71 423.88 L 365.98 416.26 L 370.49 421.54 C 372.97 424.44 375.00 427.15 375.00 427.55 C 375.00 428.35 364.82 440.02 355.52 449.88 C 352.21 453.39 349.05 456.79 348.50 457.43 C 346.42 459.87 329.11 478.00 316.44 491.00 C 301.92 505.90 299.00 510.40 299.00 517.82 C 299.00 521.78 299.51 523.23 301.61 525.34 C 304.30 528.03 309.44 529.58 312.66 528.67 C 313.67 528.39 315.51 527.87 316.74 527.51 C 320.67 526.39 318.28 529.67 313.90 531.42 C 305.24 534.89 297.32 532.57 292.27 525.08 C 289.62 521.15 289.25 513.93 291.50 510.00 C 293.48 506.54 293.49 504.34 291.53 505.98 C 288.06 508.85 284.00 516.44 284.00 520.03 C 284.00 529.47 296.43 539.28 308.50 539.38 C 319.12 539.46 324.42 535.13 332.49 519.79 C 335.18 514.68 340.43 505.44 344.15 499.26 C 350.17 489.28 354.10 483.52 366.17 467.00 C 371.98 459.05 386.13 442.00 386.92 442.00 C 387.35 442.00 388.50 442.89 389.48 443.98 C 391.51 446.22 391.82 445.59 383.95 455.00 C 367.76 474.35 350.10 500.14 341.43 517.08 C 336.54 526.66 331.47 534.76 328.14 538.34 C 320.90 546.14 308.12 548.25 296.76 543.53 M 468.25 543.89 C 462.61 541.10 456.38 533.99 451.62 524.91 C 443.80 509.99 440.52 504.29 434.12 494.50 C 426.01 482.09 409.52 460.12 400.34 449.50 C 393.42 441.49 383.93 430.22 348.61 388.05 C 338.23 375.65 328.01 363.48 325.91 361.00 C 323.81 358.52 318.05 351.72 313.12 345.87 C 305.48 336.84 303.78 335.32 301.73 335.71 C 299.94 336.05 298.05 335.08 294.43 331.94 C 286.18 324.80 280.81 323.51 273.50 326.90 C 265.66 330.54 259.20 340.09 260.52 346.10 C 260.87 347.70 261.57 349.00 262.08 349.00 C 262.59 349.00 263.00 350.31 263.00 351.91 C 263.00 354.27 261.62 356.05 255.75 361.25 C 251.76 364.78 247.64 367.98 246.59 368.37 C 244.54 369.11 242.01 366.76 228.50 351.55 C 224.65 347.22 218.69 340.56 215.25 336.76 C 211.40 332.50 209.00 328.96 209.00 327.54 C 209.00 324.96 222.65 312.00 225.37 312.00 C 226.23 312.00 228.77 312.95 231.00 314.12 C 235.67 316.55 239.30 316.22 244.75 312.84 C 248.55 310.50 252.97 302.43 252.99 297.83 C 253.00 296.36 253.27 294.46 253.60 293.60 C 253.93 292.75 260.34 286.53 267.85 279.78 C 275.36 273.03 284.77 264.44 288.76 260.69 C 299.87 250.27 309.17 246.83 326.00 246.92 C 340.20 246.99 354.33 251.19 366.30 258.89 C 368.91 260.57 370.00 261.94 369.80 263.28 C 369.52 265.09 368.59 265.25 357.48 265.37 C 346.03 265.49 345.13 265.66 338.78 268.79 C 323.00 276.56 317.94 290.18 325.52 304.47 C 327.46 308.13 328.78 311.54 328.46 312.07 C 328.14 312.59 330.49 315.82 333.69 319.24 C 346.16 332.61 351.85 338.75 357.56 344.98 C 363.74 351.73 370.93 359.52 382.02 371.47 C 385.61 375.34 390.98 381.20 393.97 384.50 C 396.95 387.80 402.56 393.89 406.44 398.04 C 410.33 402.18 417.77 410.25 423.00 415.98 C 433.30 427.27 467.15 464.10 475.40 473.00 C 479.98 477.93 493.96 493.20 504.55 504.83 C 510.01 510.83 511.36 513.70 511.43 519.52 C 511.57 529.63 503.52 539.37 491.21 544.01 C 483.95 546.74 473.91 546.69 468.25 543.89 M 491.22 536.88 C 502.11 531.35 507.61 521.64 503.75 514.74 C 501.53 510.76 496.77 504.89 496.22 505.44 C 495.93 505.74 496.49 507.77 497.48 509.95 C 500.75 517.21 498.46 525.33 491.73 530.35 C 487.70 533.36 479.35 533.73 474.24 531.12 C 470.20 529.06 467.05 526.04 470.21 527.25 C 474.75 528.99 480.93 529.13 484.25 527.55 C 488.30 525.63 490.00 522.48 490.00 516.91 C 490.00 511.14 486.97 506.03 478.35 497.25 C 474.17 492.99 463.76 482.07 455.22 473.00 C 446.69 463.93 436.93 453.57 433.54 450.00 C 430.15 446.43 418.64 433.60 407.97 421.50 C 377.22 386.64 357.47 364.71 354.41 362.00 L 351.58 359.50 L 354.48 363.50 C 356.07 365.70 363.04 374.48 369.96 383.00 C 376.88 391.52 384.78 401.34 387.52 404.82 C 390.26 408.30 395.82 415.27 399.88 420.32 C 419.22 444.36 420.49 447.83 402.50 427.46 C 401.40 426.21 395.48 419.64 389.34 412.85 C 383.21 406.06 371.33 392.85 362.94 383.50 C 310.14 324.62 311.10 325.58 310.17 330.36 C 309.90 331.74 317.22 341.57 321.45 345.50 C 322.05 346.05 323.94 348.30 325.65 350.50 C 327.37 352.70 345.31 374.07 365.51 398.00 C 427.87 471.83 440.12 488.33 457.59 522.00 C 462.32 531.11 468.26 537.34 473.59 538.79 C 478.59 540.15 486.45 539.29 491.22 536.88 M 380.16 380.25 C 379.07 378.74 371.33 369.63 362.94 360.01 C 354.56 350.39 343.34 337.34 338.01 331.01 C 326.40 317.23 325.34 316.26 323.74 317.86 C 321.95 319.65 323.76 321.99 341.05 340.16 C 349.60 349.15 362.14 362.46 368.90 369.75 C 381.07 382.86 383.99 385.58 380.16 380.25 M 252.31 357.74 L 256.13 354.50 L 254.67 348.50 L 253.22 342.50 L 253.11 347.68 C 253.02 352.01 252.57 353.19 250.37 354.93 C 246.45 358.01 244.04 357.46 238.46 352.23 C 235.68 349.63 232.53 346.82 231.46 346.00 C 229.60 344.58 229.58 344.61 230.94 346.50 C 234.74 351.77 244.63 361.00 246.47 360.99 C 247.59 360.98 250.22 359.51 252.31 357.74 M 308.93 322.85 C 312.82 319.47 316.00 316.29 316.00 315.79 C 316.00 315.28 312.76 317.14 308.81 319.93 C 304.85 322.72 301.13 325.00 300.54 325.00 C 299.95 325.00 297.81 323.88 295.79 322.50 C 290.46 318.88 281.85 316.82 277.75 318.19 C 272.10 320.07 272.61 320.80 279.21 320.27 C 286.13 319.72 290.29 321.19 296.50 326.41 C 298.15 327.79 300.03 328.94 300.68 328.96 C 301.33 328.98 305.04 326.23 308.93 322.85 M 228.27 322.60 C 236.75 325.59 246.01 323.91 252.68 318.17 C 256.70 314.71 260.96 306.81 261.62 301.57 C 262.34 295.92 263.32 294.80 285.50 274.23 C 299.48 261.26 307.96 256.80 323.80 254.11 C 333.56 252.45 334.15 252.23 330.50 251.61 C 324.46 250.59 310.88 253.36 302.50 257.34 C 297.05 259.93 291.81 263.85 281.74 272.86 C 259.70 292.59 259.25 293.08 258.47 298.64 C 257.06 308.58 252.77 314.91 244.56 319.19 C 241.43 320.81 239.48 321.12 235.16 320.68 C 232.17 320.37 229.24 319.64 228.66 319.06 C 226.69 317.09 222.55 317.96 219.25 321.06 C 217.46 322.73 216.00 324.28 216.00 324.50 C 216.00 324.72 217.87 324.07 220.14 323.05 C 223.88 321.38 224.69 321.33 228.27 322.60 M 208.00 484.44 C 208.00 482.81 216.51 467.84 219.74 463.80 C 221.81 461.21 232.24 449.96 242.93 438.80 C 274.02 406.32 283.05 396.90 289.34 390.35 L 295.24 384.20 L 292.47 378.52 C 289.45 372.36 288.05 363.70 289.88 362.57 C 291.07 361.84 295.00 365.31 314.94 384.74 C 325.20 394.74 327.23 397.17 326.00 398.02 C 323.79 399.55 316.28 398.26 310.12 395.31 L 304.73 392.72 L 300.29 397.61 C 297.85 400.30 292.17 406.33 287.67 411.01 C 283.18 415.70 270.98 428.52 260.57 439.51 C 232.36 469.29 226.36 474.94 217.32 480.25 C 209.34 484.94 208.00 485.54 208.00 484.44 M 227.96 464.52 C 233.51 458.76 242.65 449.21 248.27 443.29 C 275.15 415.02 281.18 408.71 291.33 398.22 L 302.25 386.94 L 300.52 382.41 C 298.61 377.41 299.05 375.88 301.74 378.19 C 308.24 383.77 306.25 379.61 299.06 372.57 C 296.29 369.86 293.73 367.94 293.37 368.30 C 292.33 369.33 295.09 377.86 297.73 381.74 L 300.15 385.30 L 293.32 392.33 C 289.57 396.19 286.05 399.89 285.50 400.55 C 284.95 401.20 280.00 406.42 274.50 412.14 C 226.02 462.52 214.70 475.00 217.43 475.00 C 217.67 475.00 222.41 470.29 227.96 464.52 M 567.13 480.24 C 558.50 475.35 556.77 473.67 509.93 424.50 C 505.22 419.55 496.44 410.41 490.42 404.19 L 479.49 392.89 L 473.93 395.43 C 467.89 398.20 458.99 399.27 458.30 397.33 C 458.07 396.68 464.55 389.65 472.69 381.70 C 490.53 364.28 493.62 361.65 495.09 362.56 C 496.96 363.71 495.49 371.70 492.26 377.96 L 489.30 383.69 L 496.40 391.26 C 508.49 404.14 550.79 448.58 560.82 458.91 C 562.64 460.79 565.39 464.17 566.93 466.42 C 570.58 471.72 577.25 485.00 576.26 484.99 C 575.84 484.98 571.73 482.84 567.13 480.24 M 568.00 475.05 C 568.00 473.58 559.52 463.78 545.45 449.00 C 538.38 441.57 524.66 427.18 514.96 417.00 C 490.96 391.82 485.49 385.89 485.56 385.14 C 485.59 384.79 486.80 382.02 488.25 379.00 C 491.30 372.61 492.59 368.00 491.33 368.00 C 490.84 368.00 487.32 371.15 483.50 375.00 C 476.32 382.23 475.57 383.96 481.59 379.36 C 483.50 377.91 485.35 377.02 485.72 377.38 C 486.08 377.75 485.45 379.95 484.32 382.28 L 482.26 386.53 L 495.17 400.01 C 502.27 407.43 521.45 427.54 537.79 444.71 C 554.13 461.87 567.61 475.93 567.75 475.96 C 567.89 475.98 568.00 475.57 568.00 475.05 M 373.87 439.50 C 375.72 436.12 379.01 432.68 379.73 433.39 C 380.10 433.76 378.69 435.74 376.59 437.78 C 374.50 439.83 373.27 440.60 373.87 439.50 M 420.68 406.20 C 419.75 405.18 419.00 404.00 419.00 403.59 C 419.00 402.88 433.77 385.23 464.97 348.64 C 472.41 339.92 478.64 331.99 478.80 331.02 C 479.50 326.95 476.03 328.30 470.34 334.32 C 464.80 340.18 438.44 369.28 421.49 388.25 C 417.19 393.06 413.35 397.00 412.96 397.00 C 412.57 397.00 411.70 396.35 411.04 395.55 C 410.04 394.35 412.08 391.33 422.53 378.49 C 429.51 369.91 435.01 362.67 434.74 362.41 C 434.48 362.15 428.47 368.44 421.38 376.38 C 414.30 384.33 408.05 390.87 407.50 390.93 C 406.95 390.99 404.62 388.91 402.33 386.32 C 397.34 380.70 396.44 382.56 412.60 365.21 C 419.14 358.18 428.55 347.99 433.50 342.55 C 438.45 337.12 443.44 331.74 444.58 330.59 C 452.95 322.21 461.01 312.83 460.53 312.05 C 460.21 311.54 461.54 308.13 463.48 304.47 C 468.17 295.62 468.34 288.87 464.04 281.37 C 457.86 270.60 445.16 264.79 428.50 265.11 C 419.65 265.28 419.50 265.25 419.50 262.92 C 419.50 261.07 420.86 259.76 425.69 256.96 C 436.40 250.73 446.88 247.74 459.87 247.23 C 480.13 246.42 488.66 249.77 505.12 265.00 C 522.70 281.26 527.38 285.55 531.23 288.98 C 533.77 291.22 535.16 293.45 535.56 295.89 C 536.67 302.53 539.05 308.69 541.28 310.74 C 547.39 316.32 554.06 317.21 559.76 313.19 C 561.27 312.13 563.21 311.54 564.09 311.88 C 567.69 313.28 580.00 325.34 580.00 327.46 C 580.00 328.72 577.22 332.75 573.38 337.07 C 569.74 341.15 563.56 348.10 559.64 352.50 C 546.88 366.82 544.41 369.09 542.37 368.35 C 541.34 367.98 537.20 364.75 533.16 361.17 C 526.36 355.13 525.87 354.44 526.46 351.58 C 528.78 340.34 528.54 339.03 522.97 332.70 C 519.91 329.22 517.54 327.64 513.48 326.36 C 506.44 324.14 501.83 325.43 494.95 331.55 C 491.54 334.58 489.03 336.00 487.12 336.00 C 483.82 336.00 484.24 335.54 453.16 372.57 C 448.57 378.03 443.13 384.52 441.05 387.00 C 429.17 401.20 423.69 407.53 423.06 407.77 C 422.67 407.93 421.60 407.21 420.68 406.20 M 420.93 368.50 C 425.56 363.55 436.35 352.12 444.92 343.11 C 453.49 334.09 461.98 325.16 463.78 323.25 C 466.38 320.51 466.83 319.49 465.91 318.39 C 465.28 317.63 464.25 317.03 463.63 317.07 C 463.01 317.11 453.62 327.57 442.78 340.32 C 431.93 353.07 419.78 367.31 415.78 371.97 C 406.71 382.52 409.70 380.51 420.93 368.50 M 551.34 354.10 C 557.48 347.74 558.80 346.00 557.51 346.00 C 557.25 346.00 554.66 348.25 551.76 351.01 C 545.37 357.09 542.78 357.97 539.16 355.28 C 537.10 353.74 536.38 352.20 535.98 348.40 C 535.44 343.23 534.73 344.00 533.47 351.11 C 532.89 354.40 533.16 354.99 536.64 357.86 C 538.74 359.59 541.40 361.00 542.56 361.00 C 543.86 361.00 547.24 358.34 551.34 354.10 M 492.24 326.45 C 498.43 321.25 502.83 319.71 509.94 320.28 C 516.25 320.79 516.38 320.76 513.59 319.29 C 511.69 318.30 508.95 317.92 505.58 318.20 C 500.64 318.61 498.12 319.56 491.33 323.57 L 488.17 325.44 L 481.08 320.56 C 477.18 317.87 473.75 315.91 473.46 316.21 C 472.79 316.88 486.72 329.00 488.16 329.00 C 488.74 329.00 490.57 327.85 492.24 326.45 M 560.89 322.43 C 564.46 321.00 565.09 321.00 567.86 322.43 C 572.31 324.73 572.73 324.37 569.50 321.00 C 566.26 317.62 563.36 317.24 558.79 319.61 C 554.00 322.08 546.44 321.08 540.85 317.24 C 535.57 313.61 531.38 306.14 530.46 298.72 C 529.77 293.16 530.27 293.73 509.49 274.89 C 501.24 267.41 492.60 260.33 490.29 259.15 C 479.69 253.74 466.03 250.48 458.86 251.65 C 454.59 252.35 454.68 252.39 463.01 253.61 C 480.35 256.14 489.24 261.18 509.58 280.00 C 524.29 293.61 527.00 296.92 527.00 301.29 C 527.00 305.97 532.84 315.72 537.81 319.32 C 540.39 321.19 543.17 322.98 544.00 323.28 C 547.12 324.45 557.11 323.94 560.89 322.43 M 656.79 292.75 C 654.52 289.18 652.00 282.19 652.00 279.43 C 652.00 272.28 659.02 266.70 668.17 266.58 C 672.89 266.51 674.28 266.92 676.51 269.00 C 679.92 272.18 681.78 275.77 682.55 280.65 C 683.11 284.24 682.95 284.59 680.02 285.86 C 675.84 287.67 675.33 286.83 677.99 282.52 C 680.72 278.10 680.09 274.31 676.48 273.41 C 673.09 272.55 661.83 276.65 658.03 280.12 C 652.86 284.84 654.45 288.71 661.96 289.72 C 666.92 290.39 667.10 291.64 662.53 293.55 C 658.18 295.37 658.49 295.41 656.79 292.75 M 117.00 290.21 C 112.32 287.65 109.00 282.60 109.00 278.05 C 109.00 273.80 113.55 264.00 115.52 264.00 C 117.85 264.00 122.00 265.91 122.00 266.98 C 122.00 267.54 121.08 268.00 119.95 268.00 C 116.18 268.00 112.00 270.87 112.00 273.45 C 112.00 276.61 114.31 278.79 120.80 281.77 C 128.46 285.27 133.05 285.71 135.36 283.15 C 137.19 281.14 137.16 281.07 133.86 279.06 C 132.01 277.93 129.49 277.01 128.25 277.00 C 125.53 277.00 125.54 277.25 128.02 271.45 C 129.87 267.14 130.19 266.86 131.77 268.20 C 132.72 269.01 134.97 270.25 136.77 270.97 C 140.75 272.54 141.35 273.39 140.13 275.71 C 139.61 276.69 138.69 279.30 138.08 281.50 C 137.47 283.70 135.88 286.82 134.55 288.43 C 132.48 290.94 131.30 291.42 126.32 291.74 C 121.94 292.03 119.63 291.65 117.00 290.21 M 646.25 268.72 C 644.90 266.97 637.00 252.38 637.00 251.63 C 637.00 251.28 637.81 251.00 638.80 251.00 C 641.19 251.00 659.17 241.43 660.74 239.31 C 662.21 237.33 662.05 237.19 665.37 243.49 C 668.33 249.12 668.69 250.82 666.53 249.03 C 665.34 248.04 663.11 248.86 654.53 253.46 C 648.74 256.57 644.00 259.70 644.00 260.43 C 644.00 262.54 646.60 264.14 650.96 264.72 C 653.18 265.02 655.00 265.65 655.00 266.13 C 655.00 266.61 654.83 267.00 654.62 267.00 C 654.41 267.00 652.66 267.66 650.72 268.47 C 647.97 269.62 646.99 269.68 646.25 268.72 M 140.50 266.48 C 138.85 265.13 135.15 263.01 132.27 261.76 C 129.39 260.52 127.03 259.00 127.02 258.39 C 127.01 257.78 128.06 255.72 129.35 253.82 C 130.64 251.92 131.99 249.19 132.35 247.75 C 133.12 244.68 136.08 243.44 138.96 244.98 C 141.05 246.10 141.46 247.64 140.39 250.42 C 139.67 252.29 136.89 252.49 135.20 250.80 C 134.27 249.87 134.00 249.97 134.00 251.28 C 134.00 253.45 143.80 259.18 146.67 258.68 C 148.57 258.35 148.72 258.60 147.94 260.66 C 146.89 263.42 144.05 269.02 143.72 268.96 C 143.60 268.94 142.15 267.83 140.50 266.48 M 148.20 248.80 C 146.61 247.21 146.74 244.09 148.50 241.00 C 149.29 239.62 149.95 238.17 149.96 237.78 C 150.01 236.94 144.62 234.00 143.05 234.00 C 141.24 234.00 141.91 235.48 144.19 236.51 C 147.17 237.86 147.41 239.27 145.13 242.09 C 143.22 244.45 143.16 244.46 141.10 242.59 C 138.49 240.23 138.47 238.48 140.97 233.31 C 144.28 226.44 148.55 226.16 156.88 232.25 C 159.81 234.40 161.41 234.50 160.64 232.50 C 160.32 231.68 160.45 231.00 160.92 231.00 C 161.95 231.00 163.00 233.48 163.00 235.91 C 163.00 236.87 161.88 238.71 160.50 240.00 C 159.12 241.29 158.00 242.88 158.00 243.54 C 158.00 244.19 157.07 245.92 155.93 247.37 C 153.74 250.15 150.21 250.81 148.20 248.80 M 156.00 242.04 C 156.00 240.84 152.04 238.63 151.27 239.39 C 150.45 240.22 153.03 243.00 154.62 243.00 C 155.38 243.00 156.00 242.57 156.00 242.04 M 629.14 239.93 C 623.62 231.26 623.16 230.00 625.53 230.00 C 627.42 230.00 646.00 218.09 646.00 216.88 C 646.00 216.40 646.43 216.00 646.95 216.00 C 648.17 216.00 654.00 224.44 653.98 226.18 C 653.97 227.22 653.78 227.20 653.09 226.10 C 652.60 225.34 651.52 224.97 650.69 225.29 C 648.36 226.18 632.08 237.05 631.39 238.19 C 630.25 240.02 633.91 242.40 638.74 242.95 L 643.50 243.50 L 639.88 245.75 C 637.89 246.99 635.82 248.00 635.27 248.00 C 634.72 248.00 631.96 244.37 629.14 239.93 M 164.74 230.76 C 164.42 229.92 161.19 227.04 157.58 224.37 C 153.96 221.69 151.00 219.21 151.00 218.86 C 151.00 218.50 152.24 216.86 153.75 215.21 C 155.26 213.56 157.19 210.93 158.03 209.37 C 158.87 207.80 160.77 206.10 162.25 205.58 C 164.60 204.76 165.84 205.25 171.97 209.48 C 175.84 212.15 178.99 214.59 178.97 214.91 C 178.92 215.73 174.22 221.00 173.53 221.00 C 173.22 221.00 170.49 218.97 167.45 216.50 C 162.01 212.07 159.00 210.88 159.00 213.15 C 159.00 214.64 166.71 221.77 169.14 222.55 C 171.69 223.35 171.44 224.91 168.13 228.89 C 165.96 231.51 165.19 231.94 164.74 230.76 M 612.54 217.26 C 611.14 215.75 610.00 213.94 610.00 213.23 C 610.00 212.52 609.31 211.67 608.46 211.35 C 607.09 210.82 607.11 210.54 608.61 208.88 C 611.05 206.18 613.16 206.40 612.11 209.24 C 611.11 211.93 612.55 216.61 614.61 217.40 C 616.64 218.18 617.49 215.38 616.13 212.39 C 613.66 206.97 615.27 202.45 620.32 200.66 C 622.78 199.78 625.15 201.20 628.43 205.50 C 630.64 208.39 630.94 209.37 629.96 210.54 C 627.95 212.98 627.00 212.20 627.00 208.11 C 627.00 205.47 626.49 204.02 625.41 203.60 C 622.58 202.52 622.23 203.85 623.83 209.61 L 625.40 215.26 L 622.64 217.63 C 619.01 220.75 615.67 220.63 612.54 217.26 M 176.37 207.08 C 170.29 203.37 168.35 197.80 171.56 193.22 C 173.41 190.57 175.00 190.34 175.00 192.71 C 175.00 195.00 182.94 203.00 185.21 203.00 C 188.35 203.00 187.15 200.41 181.75 195.52 C 166.53 181.76 166.48 181.69 170.01 178.49 C 172.70 176.06 174.12 176.91 185.95 188.05 L 195.40 196.95 L 193.02 199.47 C 191.72 200.86 190.05 202.00 189.33 202.00 C 188.60 202.00 188.00 202.87 188.00 203.94 C 188.00 206.22 184.43 209.00 181.53 209.00 C 180.41 208.99 178.09 208.13 176.37 207.08 M 603.40 205.57 C 600.21 204.18 599.00 202.33 599.00 198.84 C 599.00 196.40 612.57 183.00 615.04 183.00 C 615.99 183.00 617.81 183.83 619.07 184.85 L 621.35 186.70 L 619.18 189.04 C 617.98 190.33 617.00 191.74 617.00 192.19 C 617.00 192.63 616.45 193.00 615.78 193.00 C 615.11 193.00 612.20 195.34 609.30 198.19 C 604.36 203.07 604.14 203.50 605.68 205.19 C 607.60 207.32 607.47 207.34 603.40 205.57 M 590.16 192.48 L 587.17 189.96 L 592.58 184.28 C 597.84 178.76 598.93 176.69 597.14 175.58 C 596.20 175.00 589.47 181.05 586.79 184.88 L 585.13 187.26 L 582.10 184.88 C 580.44 183.57 579.17 181.99 579.29 181.37 C 579.41 180.75 582.24 177.33 585.58 173.76 L 591.67 167.28 L 594.33 169.22 C 595.80 170.29 597.00 171.77 597.00 172.52 C 597.00 173.26 597.90 174.15 598.99 174.50 C 605.47 176.55 605.55 181.61 599.24 189.19 C 596.63 192.32 594.20 194.91 593.83 194.94 C 593.46 194.97 591.81 193.87 590.16 192.48 M 196.00 190.30 C 193.18 189.27 189.10 184.72 188.48 181.92 C 187.83 178.94 188.87 176.32 192.26 172.41 C 193.87 170.56 195.36 170.00 198.65 170.00 C 204.18 170.00 206.11 172.69 202.71 175.66 C 197.87 179.90 197.34 180.12 197.42 177.87 C 197.51 175.57 193.56 172.28 192.59 173.85 C 191.84 175.07 198.45 183.09 201.61 184.78 C 204.19 186.17 208.00 184.98 208.00 182.80 C 208.00 182.18 208.26 181.93 208.58 182.25 C 209.64 183.30 206.92 187.08 203.69 189.05 C 200.47 191.01 198.74 191.29 196.00 190.30 M 214.28 175.92 C 213.06 175.46 210.43 172.82 208.44 170.04 C 206.44 167.27 204.40 165.00 203.91 165.00 C 201.92 165.00 203.17 162.33 205.90 160.72 C 209.92 158.34 210.25 158.45 213.81 163.25 C 219.89 171.45 219.92 171.48 221.17 170.23 C 222.40 169.00 219.12 163.39 214.37 158.65 C 212.16 156.43 212.12 156.21 213.76 154.85 C 218.91 150.59 218.38 150.41 225.01 158.59 L 231.22 166.25 L 228.36 168.59 C 226.79 169.88 224.99 170.94 224.36 170.96 C 223.73 170.98 222.96 171.65 222.66 172.45 C 221.75 174.81 216.79 176.87 214.28 175.92 M 568.27 173.75 C 562.35 169.59 561.60 163.31 566.45 158.45 C 570.90 154.01 576.55 154.00 581.33 158.43 C 584.19 161.08 584.86 165.52 582.94 169.11 C 581.92 171.01 581.75 170.97 578.05 168.04 C 573.26 164.24 571.47 164.21 570.18 167.90 C 568.91 171.57 570.84 174.69 574.76 175.28 C 577.49 175.70 577.49 175.70 574.49 175.85 C 572.77 175.94 570.09 175.03 568.27 173.75 M 578.80 161.54 C 579.45 160.12 579.54 158.83 579.02 158.51 C 577.89 157.81 573.88 162.00 574.59 163.15 C 575.60 164.78 577.69 163.98 578.80 161.54 M 553.97 162.75 C 552.06 161.59 550.37 160.54 550.20 160.43 C 550.04 160.32 551.72 157.37 553.94 153.87 C 556.16 150.37 557.99 146.94 557.99 146.25 C 558.02 142.62 553.41 147.29 550.30 154.05 C 548.25 158.50 546.97 158.83 542.95 155.96 L 540.09 153.93 L 544.64 146.89 C 549.11 139.97 549.57 138.18 546.57 139.33 C 544.88 139.98 539.05 148.80 539.02 150.75 C 538.99 152.56 537.21 152.29 533.37 149.92 C 530.09 147.89 529.21 146.51 530.77 145.83 C 532.15 145.24 539.00 134.20 539.00 132.58 C 539.00 131.71 539.35 131.00 539.78 131.00 C 540.73 131.00 545.13 133.88 546.50 135.40 C 547.05 136.01 548.85 136.97 550.50 137.53 C 552.16 138.09 554.09 139.78 554.82 141.32 C 555.83 143.41 556.63 143.93 558.12 143.46 C 559.24 143.11 561.16 143.53 562.55 144.44 C 565.73 146.52 565.72 150.28 562.51 155.50 C 561.15 157.70 559.46 160.71 558.74 162.19 L 557.43 164.88 L 553.97 162.75 M 233.25 160.25 C 232.58 158.74 230.24 155.15 228.05 152.29 L 224.09 147.07 L 226.95 145.04 C 228.52 143.92 230.28 143.00 230.86 143.00 C 231.44 143.00 233.03 141.88 234.41 140.50 C 237.60 137.31 239.52 137.34 241.68 140.63 C 243.35 143.18 243.33 143.32 241.07 145.14 C 238.53 147.20 236.00 146.22 236.00 143.18 C 236.00 141.98 235.72 141.88 234.83 142.77 C 233.35 144.25 236.19 150.92 240.08 155.08 L 242.76 157.95 L 239.44 160.47 C 235.28 163.65 234.77 163.63 233.25 160.25 M 254.00 135.97 C 250.98 129.39 247.91 124.00 247.19 124.00 C 244.80 124.00 247.16 121.86 251.69 119.92 C 256.77 117.74 257.35 117.62 256.54 118.93 C 256.22 119.45 256.98 121.96 258.22 124.51 C 260.30 128.79 260.70 129.11 263.41 128.57 C 265.03 128.24 266.58 127.75 266.86 127.47 C 267.75 126.59 262.56 117.03 261.19 117.02 C 258.99 116.99 260.90 115.09 265.25 112.99 C 270.08 110.66 272.15 110.45 271.41 112.38 C 270.77 114.04 280.58 135.00 282.00 135.00 C 284.37 135.00 282.68 137.11 278.81 138.98 C 273.79 141.41 273.00 141.47 273.00 139.46 C 273.00 138.15 269.53 130.35 268.38 129.08 C 267.62 128.25 263.00 131.37 263.00 132.71 C 263.00 134.78 266.90 142.00 268.02 142.00 C 270.29 142.00 268.70 143.79 264.64 145.82 C 262.24 147.02 260.11 147.99 259.89 147.97 C 259.68 147.96 257.03 142.56 254.00 135.97 M 518.39 143.02 C 517.23 142.55 515.27 140.89 514.04 139.33 C 511.09 135.58 511.74 129.92 515.61 125.89 C 522.35 118.84 536.03 126.05 532.14 134.60 L 531.02 137.05 L 527.05 135.03 C 521.95 132.42 520.37 132.47 519.63 135.25 C 518.63 139.00 518.89 139.88 521.55 141.63 C 523.47 142.88 524.39 143.01 525.25 142.15 C 525.88 141.52 527.10 141.01 527.95 141.03 C 529.18 141.06 529.10 141.37 527.56 142.53 C 525.43 144.14 521.67 144.34 518.39 143.02 M 525.43 130.43 C 527.37 128.48 527.47 126.00 525.61 126.00 C 524.18 126.00 523.00 128.07 523.00 130.58 C 523.00 132.40 523.49 132.37 525.43 130.43 M 499.32 133.98 C 497.29 133.17 497.11 132.34 496.82 122.31 C 496.64 116.36 496.53 111.39 496.57 111.26 C 496.61 111.13 498.96 112.00 501.79 113.20 C 505.11 114.60 506.64 115.75 506.10 116.44 C 504.97 117.86 504.04 127.00 505.02 127.00 C 506.59 127.00 511.92 119.95 511.39 118.57 C 510.99 117.52 511.40 117.29 512.96 117.70 C 515.62 118.39 515.52 118.63 509.84 125.18 C 507.28 128.13 504.36 131.51 503.34 132.70 C 501.92 134.35 501.00 134.65 499.32 133.98 M 286.33 131.57 C 285.14 130.71 283.41 128.03 282.49 125.62 C 280.95 121.59 280.95 121.00 282.43 118.14 C 285.19 112.80 292.82 110.23 297.88 112.93 C 300.51 114.34 303.00 119.62 303.00 123.78 C 303.00 130.23 291.75 135.49 286.33 131.57 M 296.00 128.68 C 296.00 126.30 292.76 117.54 291.23 115.77 C 289.21 113.44 287.85 114.51 288.62 117.81 C 289.86 123.08 293.27 130.00 294.62 130.00 C 295.38 130.00 296.00 129.41 296.00 128.68 M 480.00 127.18 C 478.62 126.98 476.04 125.71 474.25 124.36 C 471.44 122.23 471.00 121.30 471.00 117.46 C 471.00 111.14 474.86 106.90 480.71 106.82 C 483.16 106.79 486.28 107.57 488.21 108.70 C 491.32 110.53 491.50 110.96 491.48 116.26 C 491.44 124.43 487.43 128.25 480.00 127.18 M 482.91 118.81 C 485.35 111.57 485.54 109.00 483.61 109.00 C 482.00 109.00 479.32 115.15 478.39 120.98 C 477.87 124.21 478.05 125.00 479.28 125.00 C 480.27 125.00 481.56 122.80 482.91 118.81 M 308.12 125.35 C 308.50 122.80 306.07 112.97 304.40 110.30 C 302.78 107.71 303.27 107.30 309.04 106.38 C 311.43 106.00 314.46 105.12 315.78 104.44 C 317.31 103.65 319.20 103.48 320.96 103.99 C 323.11 104.61 324.11 104.36 325.36 102.89 C 327.23 100.71 333.19 100.31 334.81 102.27 C 335.39 102.97 336.66 106.46 337.63 110.02 C 338.61 113.58 339.86 116.81 340.42 117.20 C 340.98 117.58 341.23 118.10 340.97 118.36 C 340.41 118.92 324.34 123.16 321.50 123.50 C 320.40 123.63 318.38 124.19 317.00 124.74 C 315.62 125.29 313.00 126.07 311.17 126.47 C 308.29 127.10 307.88 126.95 308.12 125.35 M 319.40 122.15 C 320.29 120.72 316.58 108.69 315.10 108.20 C 313.99 107.83 313.84 108.55 314.34 111.62 C 315.86 120.83 317.77 124.80 319.40 122.15 M 331.00 118.68 C 331.00 117.53 328.78 109.13 327.41 105.08 C 327.07 104.06 326.63 103.97 325.84 104.76 C 324.30 106.30 327.69 120.00 329.61 120.00 C 330.37 120.00 331.00 119.41 331.00 118.68 M 427.50 125.33 C 423.44 124.43 422.52 123.92 423.67 123.20 C 424.71 122.54 428.00 103.40 428.00 97.96 C 428.00 95.63 428.29 95.48 432.01 95.83 C 434.21 96.04 436.24 96.58 436.52 97.04 C 436.81 97.50 438.55 97.62 440.41 97.32 C 445.52 96.49 448.00 99.47 448.00 106.44 C 448.00 110.76 447.50 112.47 445.59 114.69 C 443.53 117.08 442.48 117.47 438.59 117.33 C 435.65 117.22 434.00 117.58 433.99 118.33 C 433.98 118.97 433.70 120.51 433.37 121.74 C 432.91 123.47 433.31 124.20 435.14 124.93 C 437.20 125.75 436.99 125.87 433.50 125.82 C 431.30 125.79 428.60 125.57 427.50 125.33 M 438.43 113.33 C 438.78 112.42 439.34 109.04 439.68 105.83 C 440.19 100.93 440.03 100.00 438.71 100.00 C 437.84 100.00 436.91 100.79 436.62 101.75 C 435.54 105.47 434.83 112.91 435.46 113.93 C 436.42 115.49 437.69 115.24 438.43 113.33 M 455.50 120.51 C 454.95 120.33 453.22 119.89 451.66 119.55 C 449.55 119.08 449.09 118.60 449.85 117.68 C 451.37 115.85 454.26 102.24 453.42 100.87 C 452.54 99.45 460.70 100.51 462.57 102.06 C 463.22 102.60 464.44 102.77 465.30 102.44 C 466.15 102.11 467.81 102.36 468.98 102.99 C 470.60 103.86 471.04 104.90 470.81 107.32 C 470.54 110.12 470.14 110.50 467.50 110.50 C 464.92 110.50 464.50 110.13 464.53 107.87 C 464.56 104.98 462.44 104.97 461.57 107.84 C 459.51 114.67 458.99 119.38 460.21 120.15 C 461.07 120.70 460.67 120.95 459.00 120.91 C 457.62 120.87 456.05 120.69 455.50 120.51 M 344.52 114.61 C 339.07 109.16 340.71 100.53 347.74 97.72 C 352.53 95.80 356.47 96.51 359.02 99.76 C 362.32 103.95 361.17 106.00 355.50 106.00 C 351.21 106.00 349.96 106.99 350.65 109.85 C 351.99 115.51 355.79 116.77 358.59 112.50 C 360.21 110.04 362.00 109.18 362.00 110.86 C 362.00 111.34 360.81 112.91 359.36 114.36 C 355.72 118.01 348.05 118.14 344.52 114.61 M 352.39 104.17 C 353.29 102.72 351.82 99.00 350.35 99.00 C 349.17 99.00 348.95 101.82 349.92 104.75 C 350.11 105.35 351.93 104.93 352.39 104.17 M 374.00 114.20 C 374.06 103.58 372.86 87.53 371.97 86.98 C 370.21 85.89 373.46 85.00 379.20 85.00 C 383.48 85.00 384.06 85.22 383.05 86.44 C 381.55 88.25 382.72 111.14 384.36 112.20 C 384.96 112.58 385.23 113.08 384.97 113.31 C 384.09 114.08 374.00 114.91 374.00 114.20 M 392.48 113.27 L 388.45 112.91 L 389.13 105.20 C 389.51 100.97 389.58 96.48 389.29 95.24 C 388.79 93.01 388.89 92.99 397.37 93.35 C 402.42 93.57 406.60 94.25 407.52 95.02 C 408.71 96.00 409.37 96.03 410.24 95.16 C 411.99 93.41 417.48 93.77 419.27 95.75 C 420.36 96.97 420.94 100.02 421.17 105.75 L 421.50 114.00 L 416.80 114.00 L 412.10 114.00 L 412.71 105.36 C 413.21 98.28 413.07 96.81 411.94 97.19 C 410.12 97.79 408.75 104.41 409.31 109.80 L 409.77 114.10 L 405.16 113.80 L 400.56 113.50 L 400.80 104.50 C 401.03 96.28 400.92 95.67 399.52 97.44 C 398.69 98.51 397.93 101.43 397.84 103.94 C 397.65 109.57 397.67 110.16 398.13 111.88 C 398.58 113.53 397.72 113.74 392.48 113.27 z" stroke-linecap="round"/>
</g>
</g>
</g>

  </svg>